<svg width="160" height="160" viewBox="0 0 160 160" fill="none" xmlns="http://www.w3.org/2000/svg">
  <rect width="160" height="160" fill="#2D3748"/>
  <path d="M80 70C85.5228 70 90 65.5228 90 60C90 54.4772 85.5228 50 80 50C74.4772 50 70 54.4772 70 60C70 65.5228 74.4772 70 80 70Z" fill="#4A5568"/>
  <path d="M50 110H110C110 93.3333 96.6667 80 80 80C63.3333 80 50 93.3333 50 110Z" fill="#4A5568"/>
  <path d="M59 40H101C103.761 40 106 42.2386 106 45V115C106 117.761 103.761 120 101 120H59C56.2386 120 54 117.761 54 115V45C54 42.2386 56.2386 40 59 40Z" stroke="#718096" stroke-width="2"/>
  <path d="M54 95L69 80L84 95L106 73" stroke="#718096" stroke-width="2" stroke-linecap="round" stroke-linejoin="round"/>
</svg>
